<svg width="12" height="14" viewBox="0 0 12 14" fill="none" xmlns="http://www.w3.org/2000/svg">
<path d="M5.23588 3.49034L4.83701 3.36487L5.23588 3.49034ZM3.99945 5.56531L4.25045 5.23088L3.99945 5.56531ZM4.29134 6.49326L4.69021 6.61873L4.29134 6.49326ZM5.52777 7.42122L5.27677 7.08679H5.27677L5.52777 7.42122ZM6.47232 7.42122L6.72331 7.08679L6.47232 7.42122ZM7.70875 6.49326L7.30987 6.61873L7.70875 6.49326ZM8.00063 5.56531L7.74963 5.23088L8.00063 5.56531ZM6.7642 3.49034L7.16307 3.36487L6.7642 3.49034ZM7.84925 12.626L7.58153 12.9472L7.58153 12.9472L7.84925 12.626ZM7.30162 12.1696L7.56934 11.8484H7.56934L7.30162 12.1696ZM4.69846 12.1696L4.43074 11.8484L4.43074 11.8484L4.69846 12.1696ZM4.15083 12.626L4.41855 12.9472L4.41855 12.9472L4.15083 12.626ZM9.49984 8.34914L9.08168 8.34206L9.08169 8.35004L9.49984 8.34914ZM9.50004 8.33696L9.18654 8.06026L9.50004 8.33696ZM2.50027 8.33722L2.81375 8.0605L2.50027 8.33722ZM4.47173 4.48199C5.00984 4.48199 5.47466 4.12478 5.63476 3.6158L4.83701 3.36487C4.78198 3.53984 4.6298 3.6457 4.47173 3.6457V4.48199ZM4.25045 5.23088C3.91782 4.98124 4.12531 4.48199 4.47173 4.48199V3.6457C3.26144 3.6457 2.82169 5.20419 3.74846 5.89974L4.25045 5.23088ZM4.69021 6.61873C4.84967 6.11177 4.67734 5.55126 4.25045 5.23088L3.74846 5.89974C3.88479 6.00206 3.94813 6.19081 3.89246 6.3678L4.69021 6.61873ZM5.27677 7.08679C5.12759 7.19875 4.96363 7.18391 4.83421 7.08679C4.70284 6.98819 4.62778 6.81722 4.69021 6.61873L3.89246 6.3678C3.71437 6.93398 3.94267 7.46329 4.33222 7.75565C4.72373 8.04948 5.29824 8.11629 5.77876 7.75565L5.27677 7.08679ZM6.72331 7.08679C6.29298 6.76382 5.7071 6.76382 5.27677 7.08679L5.77876 7.75565C5.91165 7.65591 6.08843 7.65591 6.22132 7.75565L6.72331 7.08679ZM7.30987 6.61873C7.3723 6.81722 7.29724 6.98819 7.16587 7.08679C7.03645 7.18392 6.87249 7.19875 6.72331 7.08679L6.22132 7.75565C6.70184 8.11629 7.27635 8.04948 7.66786 7.75565C8.05741 7.46329 8.28571 6.93398 8.10762 6.3678L7.30987 6.61873ZM7.74963 5.23088C7.32274 5.55126 7.15041 6.11177 7.30987 6.61873L8.10762 6.3678C8.05195 6.19081 8.11529 6.00206 8.25162 5.89974L7.74963 5.23088ZM7.52835 4.48199C7.87477 4.48199 8.08226 4.98123 7.74963 5.23088L8.25162 5.89974C9.17839 5.20419 8.73864 3.6457 7.52835 3.6457V4.48199ZM6.36532 3.6158C6.52542 4.12478 6.99025 4.48199 7.52835 4.48199V3.6457C7.37028 3.6457 7.21811 3.53984 7.16307 3.36487L6.36532 3.6158ZM7.16307 3.36487C6.7998 2.20996 5.20028 2.20996 4.83701 3.36487L5.63476 3.6158C5.75254 3.24136 6.24754 3.24136 6.36532 3.6158L7.16307 3.36487ZM1.75152 5.25016C1.75152 2.90377 3.65365 1.00164 6.00004 1.00164V0.165354C3.19178 0.165354 0.915232 2.4419 0.915232 5.25016H1.75152ZM6.00004 1.00164C8.34644 1.00164 10.2486 2.90377 10.2486 5.25016H11.0848C11.0848 2.4419 8.8083 0.165354 6.00004 0.165354V1.00164ZM9.0819 8.65365V11.8877H9.91818V8.65365H9.0819ZM2.91818 11.8877V8.65365H2.0819V11.8877H2.91818ZM8.11697 12.3048L7.56934 11.8484L7.0339 12.4908L7.58153 12.9472L8.11697 12.3048ZM4.43074 11.8484L3.88311 12.3048L4.41855 12.9472L4.96618 12.4908L4.43074 11.8484ZM7.56934 11.8484C7.26699 11.5964 7.01109 11.3821 6.7826 11.2354C6.54407 11.0822 6.29488 10.9749 6.00004 10.9749V11.8112C6.07513 11.8112 6.16618 11.8334 6.33068 11.939C6.50522 12.0511 6.71515 12.2251 7.0339 12.4908L7.56934 11.8484ZM4.96618 12.4908C5.28493 12.2251 5.49486 12.0511 5.6694 11.939C5.83391 11.8334 5.92495 11.8112 6.00004 11.8112V10.9749C5.7052 10.9749 5.45601 11.0822 5.21748 11.2354C4.98899 11.3821 4.73309 11.5964 4.43074 11.8484L4.96618 12.4908ZM2.0819 11.8877C2.0819 12.3294 2.08076 12.7095 2.12284 12.9921C2.16418 13.2697 2.26921 13.6112 2.62039 13.7683L2.96183 13.0049C3.02195 13.0318 2.98144 13.08 2.95001 12.8689C2.91932 12.6628 2.91818 12.3585 2.91818 11.8877H2.0819ZM3.88311 12.3048C3.51615 12.6107 3.27635 12.8092 3.09359 12.9218C2.90472 13.0382 2.90697 12.9803 2.96183 13.0049L2.62039 13.7683C2.96633 13.923 3.29222 13.7818 3.53233 13.6338C3.77856 13.4821 4.07308 13.2352 4.41855 12.9472L3.88311 12.3048ZM9.0819 11.8877C9.0819 12.3585 9.08076 12.6628 9.05007 12.8689C9.01864 13.08 8.97814 13.0318 9.03825 13.0049L9.37969 13.7683C9.73088 13.6112 9.8359 13.2697 9.87724 12.9921C9.91932 12.7095 9.91818 12.3294 9.91818 11.8877H9.0819ZM7.58153 12.9472C7.927 13.2352 8.22152 13.4821 8.46775 13.6338C8.70786 13.7818 9.03376 13.923 9.37969 13.7683L9.03825 13.0049C9.09311 12.9803 9.09537 13.0382 8.90649 12.9218C8.72373 12.8092 8.48393 12.6107 8.11697 12.3048L7.58153 12.9472ZM9.91818 8.65365C9.91818 8.54605 9.91818 8.44428 9.91798 8.34824L9.08169 8.35004C9.0819 8.44501 9.0819 8.54584 9.0819 8.65365H9.91818ZM10.2486 5.25016C10.2486 6.32792 9.8478 7.31106 9.18654 8.06026L9.81354 8.61366C10.6045 7.71754 11.0848 6.53944 11.0848 5.25016H10.2486ZM9.18654 8.06026C8.40745 8.94297 7.2689 9.49869 6.00004 9.49869V10.335C7.5188 10.335 8.88243 9.66859 9.81354 8.61366L9.18654 8.06026ZM9.91792 8.35622L9.91812 8.34404L9.08196 8.32987L9.08175 8.34206L9.91792 8.35622ZM2.91818 8.65365C2.91818 8.54134 2.91818 8.43661 2.91841 8.33821L2.08213 8.33624C2.0819 8.43581 2.0819 8.54156 2.0819 8.65365H2.91818ZM6.00004 9.49869C4.73129 9.49869 3.59284 8.94307 2.81375 8.0605L2.1868 8.61394C3.1179 9.66872 4.48142 10.335 6.00004 10.335V9.49869ZM2.81375 8.0605C2.15237 7.31127 1.75152 6.32804 1.75152 5.25016H0.915232C0.915232 6.53958 1.39572 7.71779 2.1868 8.61394L2.81375 8.0605Z" fill="#222222"/>
</svg>
