<svg width="14" height="14" viewBox="0 0 14 14" fill="none" xmlns="http://www.w3.org/2000/svg">
<path d="M7.50002 1.6665C7.50002 1.39036 7.27616 1.1665 7.00002 1.1665C6.72388 1.1665 6.50002 1.39036 6.50002 1.6665L6.50002 6.49984H1.66669C1.39054 6.49984 1.16669 6.72369 1.16669 6.99984C1.16669 7.27598 1.39054 7.49984 1.66669 7.49984H6.50002V12.3332C6.50002 12.6093 6.72388 12.8332 7.00002 12.8332C7.27616 12.8332 7.50002 12.6093 7.50002 12.3332V7.49984H12.3334C12.6095 7.49984 12.8334 7.27598 12.8334 6.99984C12.8334 6.72369 12.6095 6.49984 12.3334 6.49984H7.50002L7.50002 1.6665Z" fill="#222222" stroke="black" stroke-linecap="round"/>
</svg>
