<svg width="20" height="20" viewBox="0 0 20 20" fill="none" xmlns="http://www.w3.org/2000/svg">
<path d="M8 19V18.25V19ZM7 19V19.75V19ZM1 13H1.75H1ZM1 7H0.25H1ZM7 1V0.25V1ZM8 1V1.75V1ZM1.06156 5.21783L0.320792 5.1005L0.320792 5.1005L1.06156 5.21783ZM5.21783 1.06156L5.33515 1.80232L5.21783 1.06156ZM5.21783 18.9384L5.1005 19.6792H5.1005L5.21783 18.9384ZM1.06156 14.7822L0.320791 14.8995L0.320791 14.8995L1.06156 14.7822ZM11.4504 18.6C11.7816 18.3513 11.8484 17.8811 11.5997 17.5499C11.3509 17.2187 10.8808 17.1519 10.5496 17.4007L11.4504 18.6ZM10.5496 2.59931C10.8808 2.84808 11.3509 2.78126 11.5997 2.45007C11.8484 2.11888 11.7816 1.64873 11.4504 1.39996L10.5496 2.59931ZM5 9.25C4.58579 9.25 4.25 9.58578 4.25 10C4.25 10.4142 4.58579 10.75 5 10.75V9.25ZM18 10V10.75V10ZM15.466 5.41232C15.1414 5.15497 14.6697 5.20946 14.4123 5.53403C14.155 5.8586 14.2095 6.33034 14.534 6.58768L15.466 5.41232ZM16.763 7.39785L17.2289 6.81016L16.763 7.39785ZM16.763 12.6022L17.2289 13.1898L16.763 12.6022ZM14.534 13.4123C14.2095 13.6697 14.155 14.1414 14.4123 14.466C14.6697 14.7905 15.1414 14.845 15.466 14.5877L14.534 13.4123ZM18.9801 9.74933L19.7208 9.63133V9.63133L18.9801 9.74933ZM18.9801 10.2507L19.7208 10.3687V10.3687L18.9801 10.2507ZM19 10H19.75H19ZM8 18.25H7V19.75H8V18.25ZM1.75 13L1.75 7H0.25L0.25 13H1.75ZM7 1.75L8 1.75V0.25L7 0.25V1.75ZM1.75 7C1.75 6.04233 1.75233 5.65082 1.80232 5.33515L0.320792 5.1005C0.247673 5.56216 0.25 6.09965 0.25 7H1.75ZM7 0.25C6.09966 0.25 5.56216 0.247672 5.1005 0.320792L5.33515 1.80232C5.65082 1.75233 6.04233 1.75 7 1.75V0.25ZM1.80232 5.33515C2.09035 3.51661 3.51661 2.09035 5.33515 1.80232L5.1005 0.320792C2.64012 0.710478 0.710478 2.64012 0.320792 5.1005L1.80232 5.33515ZM7 18.25C6.04233 18.25 5.65082 18.2477 5.33515 18.1977L5.1005 19.6792C5.56216 19.7523 6.09965 19.75 7 19.75V18.25ZM0.25 13C0.25 13.9003 0.247672 14.4378 0.320791 14.8995L1.80232 14.6648C1.75233 14.3492 1.75 13.9577 1.75 13H0.25ZM5.33515 18.1977C3.51661 17.9096 2.09035 16.4834 1.80232 14.6648L0.320791 14.8995C0.710478 17.3599 2.64012 19.2895 5.1005 19.6792L5.33515 18.1977ZM8 19.75C9.29358 19.75 10.4894 19.3219 11.4504 18.6L10.5496 17.4007C9.83933 17.9342 8.95763 18.25 8 18.25V19.75ZM8 1.75C8.95763 1.75 9.83933 2.06583 10.5496 2.59931L11.4504 1.39996C10.4894 0.678064 9.29358 0.25 8 0.25V1.75ZM5 10.75L18 10.75V9.25L5 9.25V10.75ZM14.534 6.58768L16.297 7.98553L17.2289 6.81016L15.466 5.41232L14.534 6.58768ZM16.297 12.0145L14.534 13.4123L15.466 14.5877L17.2289 13.1898L16.297 12.0145ZM16.297 7.98553C17.0143 8.55429 17.5012 8.94177 17.8289 9.26822C18.1532 9.59132 18.2225 9.76116 18.2395 9.86734L19.7208 9.63133C19.6294 9.05816 19.2932 8.60962 18.8875 8.20551C18.4852 7.80475 17.9176 7.35616 17.2289 6.81016L16.297 7.98553ZM17.2289 13.1898C17.9175 12.6438 18.4852 12.1953 18.8875 11.7945C19.2932 11.3904 19.6294 10.9418 19.7208 10.3687L18.2395 10.1327C18.2225 10.2388 18.1532 10.4087 17.8289 10.7318C17.5012 11.0582 17.0143 11.4457 16.297 12.0145L17.2289 13.1898ZM18.2395 9.86734C18.2465 9.91168 18.25 9.95594 18.25 10H19.75C19.75 9.87662 19.7402 9.75344 19.7208 9.63133L18.2395 9.86734ZM18.25 10C18.25 10.0441 18.2465 10.0883 18.2395 10.1327L19.7208 10.3687C19.7402 10.2466 19.75 10.1234 19.75 10H18.25ZM18 10.75H19V9.25H18V10.75Z" fill="#2D264B"/>
</svg>
