<svg width="22" height="24" viewBox="0 0 22 24" fill="none" xmlns="http://www.w3.org/2000/svg">
<path d="M4.93188 5.38642L4.74952 6.11391L4.93188 5.38642ZM8.30644 3.43812L7.58523 3.2323L8.30644 3.43812ZM2.23837 10.0517L2.77722 9.53005L2.23837 10.0517ZM2.23837 13.9483L1.69952 13.4266H1.69952L2.23837 13.9483ZM4.93188 18.6136L5.11423 19.3411L4.93188 18.6136ZM8.30644 20.5619L7.58523 20.7677L8.30644 20.5619ZM13.6935 20.5619L14.4147 20.7677L13.6935 20.5619ZM17.068 18.6136L17.2504 17.8861L17.068 18.6136ZM19.7615 13.9483L19.2227 14.47V14.47L19.7615 13.9483ZM19.7615 10.0517L19.2227 9.53005V9.53005L19.7615 10.0517ZM17.068 5.38642L16.8857 4.65893L17.068 5.38642ZM13.6935 3.43812L14.4147 3.2323L13.6935 3.43812ZM4.74952 6.11391C6.60843 6.57987 8.50172 5.48678 9.02764 3.64394L7.58523 3.2323C7.28146 4.2967 6.18792 4.92806 5.11423 4.65893L4.74952 6.11391ZM2.77722 9.53005C1.34195 8.04752 2.74798 5.6122 4.74952 6.11391L5.11423 4.65893C1.6489 3.7903 -0.785401 8.00664 1.69952 10.5734L2.77722 9.53005ZM2.77722 14.47C4.1102 13.0931 4.1102 10.9069 2.77722 9.53005L1.69952 10.5734C2.46944 11.3687 2.46944 12.6314 1.69952 13.4266L2.77722 14.47ZM4.74952 17.8861C2.74798 18.3878 1.34195 15.9525 2.77722 14.47L1.69952 13.4266C-0.785402 15.9934 1.6489 20.2097 5.11423 19.3411L4.74952 17.8861ZM9.02764 20.3561C8.50172 18.5133 6.60843 17.4202 4.74952 17.8861L5.11423 19.3411C6.18792 19.072 7.28146 19.7033 7.58523 20.7677L9.02764 20.3561ZM12.9722 20.3561C12.406 22.3403 9.59392 22.3403 9.02764 20.3561L7.58523 20.7677C8.56564 24.2031 13.4342 24.2031 14.4147 20.7677L12.9722 20.3561ZM17.2504 17.8861C15.3915 17.4202 13.4982 18.5133 12.9722 20.3561L14.4147 20.7677C14.7184 19.7033 15.812 19.072 16.8857 19.3411L17.2504 17.8861ZM19.2227 14.47C20.6579 15.9525 19.2519 18.3878 17.2504 17.8861L16.8857 19.3411C20.351 20.2097 22.7853 15.9934 20.3004 13.4266L19.2227 14.47ZM19.2227 9.53005C17.8897 10.9069 17.8897 13.0931 19.2227 14.47L20.3004 13.4266C19.5305 12.6314 19.5305 11.3687 20.3004 10.5734L19.2227 9.53005ZM17.2504 6.11391C19.2519 5.6122 20.6579 8.04752 19.2227 9.53005L20.3004 10.5734C22.7853 8.00664 20.351 3.7903 16.8857 4.65893L17.2504 6.11391ZM12.9722 3.64394C13.4982 5.48678 15.3915 6.57987 17.2504 6.11391L16.8857 4.65893C15.812 4.92806 14.7184 4.2967 14.4147 3.2323L12.9722 3.64394ZM14.4147 3.2323C13.4342 -0.203084 8.56564 -0.203083 7.58523 3.2323L9.02764 3.64394C9.59392 1.6597 12.406 1.6597 12.9722 3.64394L14.4147 3.2323ZM7.24994 12C7.24994 14.0711 8.92888 15.75 10.9999 15.75V14.25C9.7573 14.25 8.74994 13.2427 8.74994 12H7.24994ZM10.9999 15.75C13.071 15.75 14.7499 14.0711 14.7499 12H13.2499C13.2499 13.2427 12.2426 14.25 10.9999 14.25V15.75ZM14.7499 12C14.7499 9.92895 13.071 8.25001 10.9999 8.25001V9.75002C12.2426 9.75002 13.2499 10.7574 13.2499 12H14.7499ZM10.9999 8.25001C8.92888 8.25001 7.24994 9.92895 7.24994 12H8.74994C8.74994 10.7574 9.7573 9.75002 10.9999 9.75002V8.25001Z" fill="#222222"/>
</svg>
